<svg id="Layer_1" data-name="Layer 1" xmlns="http://www.w3.org/2000/svg" xmlns:xlink="http://www.w3.org/1999/xlink" viewBox="0 0 98.68 108.85"><defs><style>.cls-1{fill:none;}.cls-2{clip-path:url(#clip-path);}</style><clipPath id="clip-path" transform="translate(-633.46 -329.51)"><rect class="cls-1" x="630.96" y="325.55" width="104.09" height="116.9"/></clipPath></defs><g class="cls-2"><g id="Group_1" data-name="Group 1"><path id="Path_1" data-name="Path 1" d="M683.2,432.79l-3.39-6.62H676v11.95h3.31v-7.59l3.88,7.83,3.87-7.83v7.59h3.31V426.25h-3.87Zm48.21-80.27v-5.17h-11v-3.71h10.9v-5.17h-10.9v-3.8h10.9v-5.16H714.05v23.1Zm-5.57,52.17c-1.37-.31-2.71-.69-4-1.13-1-.49-1.53-.89-1.53-1.62s.4-1,1.05-1.29a5,5,0,0,1,2.26-.48,8,8,0,0,1,4.36,1.45l4.2-4a14.62,14.62,0,0,0-8.48-2.82,12.91,12.91,0,0,0-7.11,1.93,6.65,6.65,0,0,0-3.23,5.74c0,4,3.39,5.49,6.38,6.3a39.63,39.63,0,0,1,4.12,1.21c1,.48,1.61.89,1.61,1.7s-.32,1-1,1.29a6.72,6.72,0,0,1-2.66.57,7.2,7.2,0,0,1-5.25-1.78l-4.19,3.95a14.26,14.26,0,0,0,9.36,3.23h0a13.16,13.16,0,0,0,7.19-1.86,6.77,6.77,0,0,0,3.15-5.89c0-4.2-3.31-5.65-6.3-6.46m-14.62-12.44V387H700.32v-3.72h10.82v-5.17H700.32v-3.8h10.82v-5.16h-17.2v23.1Zm0-26.48V360.6H700.32v-3.8h10.82v-5.17H700.32v-3.71h10.82v-5.17h-17.2v23Zm7.27,72.43v-2.66h-5.65V433.6h5.65v-2.67h-5.65v-2h5.65v-2.66h-9V438.2ZM691,405.33v-5.16H680.14v-3.72H691v-5.24h-10.9v-3.72H691v-5.17H673.76v23Zm40.3-26.4v-5.17h-10.9v-3.71h10.9v-5.17h-10.9v-3.8h10.9v-5.17H714.05v23Zm-40.3,0v-5.17H680.14v-3.71H691v-5.17h-10.9v-3.8H691v-5.17H673.76v23Zm-31,25.76h4a1.86,1.86,0,0,0,2-1.77,2.09,2.09,0,0,0,0-.25,1.93,1.93,0,0,0-1.85-2H660ZM672.3,418.5h-6.94l-2.67-6.78a3.67,3.67,0,0,0-.88-1.62,2.09,2.09,0,0,0-1.78-.56v9h-6.46v-23h10.74c4.84,0,7.75,3.39,7.75,7.19a7,7,0,0,1-4.28,6.54,5.2,5.2,0,0,1,.81,1.29ZM660,378.36h4a1.86,1.86,0,0,0,2-1.76,2.26,2.26,0,0,0,0-.26,1.92,1.92,0,0,0-1.85-2H660Zm12.19,13.81h-6.86l-2.67-6.78a3.73,3.73,0,0,0-.88-1.62,2.12,2.12,0,0,0-1.78-.56v9h-6.46v-23.1h10.74c4.84,0,7.75,3.4,7.75,7.19a6.94,6.94,0,0,1-4.28,6.62,5.1,5.1,0,0,1,.81,1.29Zm33.51,12.52a41.08,41.08,0,0,1-4-1.13c-1.05-.49-1.53-.89-1.53-1.62s.4-1,1.05-1.29a5.05,5.05,0,0,1,2.26-.48,8,8,0,0,1,4.36,1.45l4.2-4a14.59,14.59,0,0,0-8.48-2.82,12.85,12.85,0,0,0-7.1,1.85,6.7,6.7,0,0,0-3.23,5.74c0,4,3.39,5.49,6.38,6.3a37.16,37.16,0,0,1,4.11,1.21c1,.48,1.54.89,1.54,1.7a1.47,1.47,0,0,1-1,1.29,6.62,6.62,0,0,1-2.67.56,7.08,7.08,0,0,1-5.25-1.77l-4.2,3.95a14.16,14.16,0,0,0,9.37,3.23h0A13.16,13.16,0,0,0,708.8,417a6.8,6.8,0,0,0,3.23-5.9c0-4.2-3.31-5.65-6.3-6.46m-65.89-12.44v-9h10.9V378h-10.9v-3.71h10.9v-5.25H633.46v23.1Zm4.12,8.48a1.94,1.94,0,0,1,1.94,1.94v.08a1.86,1.86,0,0,1-1.69,2h-4.37v-4Zm.24,9.21c4.93,0,7.75-3.39,7.75-7.19s-2.82-7.19-7.75-7.19H633.46v23h6.38v-8.56Zm83.66,23.9a1.69,1.69,0,0,1-1.68,1.71h-2v-6.54h1.7a1.77,1.77,0,0,1,1.93,1.6,1,1,0,0,1,0,.17Zm-1.94,4.44c3,0,5.33-1.94,5.33-4.6v-2.83c0-2.58-2.34-4.52-5.33-4.52h-5.09V438.2Zm-61.7-2.67v-9.28h-3.31V438.2h7.43v-2.67Zm43.85-6.62v-2.66h-10v2.66h3.39v9.29h3.31v-9.29Zm-38.36,9.29H673V426.25h-3.3Zm23.66,0h3.31V426.25h-3.3Zm-35.53,0V426.25h-3.31v7.83l-4.6-7.83H646.3V438.2h3.31v-7.67l4.52,7.59Zm-19.14.16c-3.55,0-5.24-2.1-5.24-4.68v-7.43h3.31v7.59a1.87,1.87,0,0,0,1.85,1.86h.09a1.85,1.85,0,0,0,1.93-1.77s0-.06,0-.08v-7.59H644v7.43c0,2.58-1.7,4.68-5.33,4.68" transform="translate(-633.46 -329.51)"/></g></g></svg>